<?xml version="1.0" encoding="UTF-8"?>
<!DOCTYPE svg PUBLIC "-//W3C//DTD SVG 1.1//EN" "http://www.w3.org/Graphics/SVG/1.1/DTD/svg11.dtd">
<svg xmlns="http://www.w3.org/2000/svg" version="1.1" width="3840px" height="2160px" style="shape-rendering:geometricPrecision; text-rendering:geometricPrecision; image-rendering:optimizeQuality; fill-rule:evenodd; clip-rule:evenodd" xmlns:xlink="http://www.w3.org/1999/xlink">
<g><path style="opacity:0.992" fill="#000000" d="M 3129.5,846.5 C 3166.02,844.937 3201.02,849.77 3234.5,861C 3291.77,884.621 3320.94,927.454 3322,989.5C 3290.57,990.496 3259.07,990.829 3227.5,990.5C 3226.68,963.104 3214.01,943.604 3189.5,932C 3182.46,929.285 3175.3,927.118 3168,925.5C 3167,925.833 3166,926.167 3165,926.5C 3163.67,925.833 3162.33,925.167 3161,924.5C 3149,924.5 3137,924.5 3125,924.5C 3109.04,926.327 3095.38,933.66 3084,946.5C 3080.06,952.521 3077.23,958.688 3075.5,965C 3076.83,971 3076.83,977 3075.5,983C 3077.48,990.618 3081.48,996.951 3087.5,1002C 3095.08,1006.75 3103.08,1010.75 3111.5,1014C 3123.9,1018.81 3136.4,1022.31 3149,1024.5C 3178.91,1033.1 3208.74,1040.93 3238.5,1048C 3272.3,1058.31 3299.47,1077.81 3320,1106.5C 3337.53,1138.46 3341.53,1172.13 3332,1207.5C 3319.16,1248.96 3292.66,1278.13 3252.5,1295C 3235.58,1302.23 3218.25,1306.89 3200.5,1309C 3154.87,1315.85 3110.2,1312.52 3066.5,1299C 3010.24,1277.78 2976.91,1238.61 2966.5,1181.5C 2966.68,1172.56 2966.68,1163.23 2966.5,1153.5C 2997.83,1153.5 3029.17,1153.5 3060.5,1153.5C 3060.76,1190.57 3078.09,1215.73 3112.5,1229C 3119.27,1231.22 3126.1,1233.05 3133,1234.5C 3134.78,1233.52 3136.45,1233.85 3138,1235.5C 3150.39,1235.47 3162.73,1235.47 3175,1235.5C 3189.73,1233.83 3204.23,1229.33 3218.5,1222C 3224.43,1218.08 3229.76,1213.41 3234.5,1208C 3235.15,1204.85 3236.65,1201.68 3239,1198.5C 3245,1181.01 3241.83,1165.51 3229.5,1152C 3224.36,1148.36 3219.36,1144.52 3214.5,1140.5C 3200.52,1134.12 3186.19,1128.62 3171.5,1124C 3138.66,1116.48 3106.5,1107.65 3075,1097.5C 3065.77,1093.87 3056.6,1090.03 3047.5,1086C 2989.54,1054.75 2969.2,1007.42 2986.5,944C 2988.55,933.971 2992.72,924.138 2999,914.5C 3003.14,910.369 3006.47,905.702 3009,900.5C 3035.72,872.893 3067.89,856.06 3105.5,850C 3113.65,848.86 3121.65,847.693 3129.5,846.5 Z"/></g>
<g><path style="opacity:0.992" fill="#000000" d="M 1190.5,855.5 C 1224.08,855.627 1255.41,864.461 1284.5,882C 1289.54,886.712 1294.88,891.045 1300.5,895C 1324.07,919.659 1337.24,949.159 1340,983.5C 1343.65,1022.57 1334.65,1058.24 1313,1090.5C 1290.1,1117.81 1261.27,1134.31 1226.5,1140C 1214.95,1141.53 1203.45,1143.03 1192,1144.5C 1157.24,1143.5 1122.41,1143.17 1087.5,1143.5C 1087.5,1196.5 1087.5,1249.5 1087.5,1302.5C 1055.41,1302.74 1023.58,1303.08 992,1303.5C 990.978,1302.65 990.145,1301.65 989.5,1300.5C 990.498,1152.54 990.832,1004.54 990.5,856.5C 1057.34,856.832 1124,856.499 1190.5,855.5 Z M 1087.5,934.5 C 1116.25,934.58 1144.92,934.58 1173.5,934.5C 1232.1,937.662 1254.94,967.995 1242,1025.5C 1237.29,1040.42 1227.46,1051.26 1212.5,1058C 1202.92,1062.2 1193.92,1064.03 1185.5,1063.5C 1181.55,1064.27 1177.55,1064.77 1173.5,1065C 1144.84,1065.5 1116.17,1065.67 1087.5,1065.5C 1087.5,1021.83 1087.5,978.167 1087.5,934.5 Z"/></g>
<g><path style="opacity:0.99" fill="#000000" d="M 117.5,856.5 C 149.833,856.5 182.167,856.5 214.5,856.5C 214.5,913.167 214.5,969.833 214.5,1026.5C 273.167,1026.5 331.833,1026.5 390.5,1026.5C 390.5,969.833 390.5,913.167 390.5,856.5C 423.407,856.171 456.24,856.504 489,857.5C 489.667,1005.5 489.667,1153.5 489,1301.5C 487.667,1302.17 486.333,1302.83 485,1303.5C 453.716,1302.78 422.216,1302.45 390.5,1302.5C 390.5,1238.83 390.5,1175.17 390.5,1111.5C 331.833,1111.5 273.167,1111.5 214.5,1111.5C 214.833,1175.17 214.5,1238.84 213.5,1302.5C 181.564,1303.3 149.564,1303.3 117.5,1302.5C 117.5,1153.83 117.5,1005.17 117.5,856.5 Z"/></g>
<g><path style="opacity:0.988" fill="#000000" d="M 528.5,856.5 C 564.835,856.333 601.168,856.5 637.5,857C 671.708,915.193 705.875,973.359 740,1031.5C 773.443,973.068 807.277,914.902 841.5,857C 877.498,856.5 913.498,856.333 949.5,856.5C 944.131,868.396 937.631,879.729 930,890.5C 882.694,970.483 835.361,1050.48 788,1130.5C 787.5,1187.83 787.333,1245.17 787.5,1302.5C 755.784,1302.45 724.284,1302.78 693,1303.5C 691.667,1302.83 690.333,1302.17 689,1301.5C 688.988,1242.44 688.322,1183.44 687,1124.5C 638.716,1044.25 590.716,963.919 543,883.5C 537.633,874.764 532.799,865.764 528.5,856.5 Z"/></g>
<g><path style="opacity:0.987" fill="#000000" d="M 1380.5,856.5 C 1490.17,856.5 1599.83,856.5 1709.5,856.5C 1709.5,884.5 1709.5,912.5 1709.5,940.5C 1632.5,940.5 1555.5,940.5 1478.5,940.5C 1478.5,971.5 1478.5,1002.5 1478.5,1033.5C 1549.17,1033.5 1619.83,1033.5 1690.5,1033.5C 1690.5,1059.5 1690.5,1085.5 1690.5,1111.5C 1619.83,1111.5 1549.17,1111.5 1478.5,1111.5C 1478.5,1147.17 1478.5,1182.83 1478.5,1218.5C 1557.17,1218.5 1635.83,1218.5 1714.5,1218.5C 1714.5,1246.5 1714.5,1274.5 1714.5,1302.5C 1603.31,1303.45 1491.97,1303.45 1380.5,1302.5C 1380.5,1153.83 1380.5,1005.17 1380.5,856.5 Z"/></g>
<g><path style="opacity:0.989" fill="#000000" d="M 1755.5,856.5 C 1831.5,856.333 1907.5,856.5 1983.5,857C 2012.66,858.035 2039.66,866.035 2064.5,881C 2084.97,896.845 2097.14,917.678 2101,943.5C 2107.39,976.27 2100.72,1005.94 2081,1032.5C 2074.17,1038.67 2067.33,1044.83 2060.5,1051C 2055.28,1054.78 2049.61,1057.78 2043.5,1060C 2082.39,1070.88 2107.55,1096.05 2119,1135.5C 2132.15,1186.36 2119.98,1229.86 2082.5,1266C 2053.51,1287.45 2020.84,1299.45 1984.5,1302C 1978.58,1302.19 1972.75,1302.69 1967,1303.5C 1897.33,1302.17 1827.67,1302.17 1758,1303.5C 1757,1302.83 1756,1302.17 1755,1301.5C 1754.17,1153.1 1754.34,1004.76 1755.5,856.5 Z M 1852.5,934.5 C 1885.48,934.558 1918.31,934.558 1951,934.5C 1965.51,934.834 1979.01,938.668 1991.5,946C 2001.99,955.257 2007.33,967.757 2007.5,983.5C 2008.61,1008.85 1997.27,1025.35 1973.5,1033C 1969.2,1034.16 1964.87,1035.16 1960.5,1036C 1924.5,1036.5 1888.5,1036.67 1852.5,1036.5C 1852.5,1002.5 1852.5,968.5 1852.5,934.5 Z M 1852.5,1104.5 C 1891.83,1104.33 1931.17,1104.5 1970.5,1105C 1983.83,1107.17 1996.17,1111.84 2007.5,1119C 2015.47,1126.56 2020.64,1135.73 2023,1146.5C 2028.42,1167.28 2025.42,1186.61 2014,1204.5C 2001.19,1216.22 1986.03,1222.72 1968.5,1224C 1929.83,1224.5 1891.17,1224.67 1852.5,1224.5C 1852.5,1184.5 1852.5,1144.5 1852.5,1104.5 Z"/></g>
<g><path style="opacity:0.988" fill="#000000" d="M 2163.5,856.5 C 2273.17,856.5 2382.83,856.5 2492.5,856.5C 2492.5,884.5 2492.5,912.5 2492.5,940.5C 2415.17,940.5 2337.83,940.5 2260.5,940.5C 2260.5,971.5 2260.5,1002.5 2260.5,1033.5C 2331.5,1033.5 2402.5,1033.5 2473.5,1033.5C 2473.5,1059.5 2473.5,1085.5 2473.5,1111.5C 2402.5,1111.5 2331.5,1111.5 2260.5,1111.5C 2260.5,1147.17 2260.5,1182.83 2260.5,1218.5C 2339.5,1218.5 2418.5,1218.5 2497.5,1218.5C 2497.5,1246.5 2497.5,1274.5 2497.5,1302.5C 2386.32,1302.68 2275.49,1303.01 2165,1303.5C 2164.33,1302.83 2163.67,1302.17 2163,1301.5C 2163.5,1153.25 2163.66,1004.91 2163.5,856.5 Z"/></g>
<g><path style="opacity:0.989" fill="#000000" d="M 2703.5,856.5 C 2736.5,856.333 2769.5,856.5 2802.5,857C 2803.43,857.388 2804.09,858.055 2804.5,859C 2837.15,949.258 2870.49,1039.59 2904.5,1130C 2904.5,1131.33 2904.5,1132.67 2904.5,1134C 2918.01,1167.33 2931.01,1201 2943.5,1235C 2943.17,1235.33 2942.83,1235.67 2942.5,1236C 2951.68,1258.1 2959.68,1280.27 2966.5,1302.5C 2933.73,1303.04 2901.23,1303.38 2869,1303.5C 2867.32,1302.94 2865.99,1301.94 2865,1300.5C 2854.75,1268.09 2843.92,1235.93 2832.5,1204C 2778.16,1203.17 2723.83,1203.33 2669.5,1204.5C 2658.46,1237.13 2647.12,1269.63 2635.5,1302C 2634.23,1302.31 2633.07,1302.81 2632,1303.5C 2600.88,1303.04 2569.71,1302.71 2538.5,1302.5C 2537.39,1301.28 2537.22,1299.94 2538,1298.5C 2580.73,1185.21 2622.56,1072.71 2663.5,961C 2676.74,925.354 2690.07,890.521 2703.5,856.5 Z M 2752.5,968.5 C 2770.51,1022.02 2788.84,1075.52 2807.5,1129C 2770.17,1129.67 2732.83,1129.67 2695.5,1129C 2714.33,1075.69 2733.33,1022.19 2752.5,968.5 Z"/></g>
<g><path style="opacity:0.991" fill="#000000" d="M 3361.5,856.5 C 3481.5,856.5 3601.5,856.5 3721.5,856.5C 3721.5,884.5 3721.5,912.5 3721.5,940.5C 3677.83,940.5 3634.17,940.5 3590.5,940.5C 3590.5,1061.17 3590.5,1181.83 3590.5,1302.5C 3557.97,1303.45 3525.31,1303.45 3492.5,1302.5C 3492.5,1181.83 3492.5,1061.17 3492.5,940.5C 3448.83,940.5 3405.17,940.5 3361.5,940.5C 3361.5,912.5 3361.5,884.5 3361.5,856.5 Z"/></g>
</svg>
