<svg width="16" height="18" viewBox="0 0 16 18" fill="none" xmlns="http://www.w3.org/2000/svg">
<path d="M13.45 2.4333L8.86665 0.716638C8.39165 0.541638 7.61665 0.541638 7.14165 0.716638L2.55831 2.4333C1.67498 2.76664 0.958313 3.79997 0.958313 4.74164V11.4916C0.958313 12.1666 1.39998 13.0583 1.94165 13.4583L6.52498 16.8833C7.33331 17.4916 8.65831 17.4916 9.46665 16.8833L14.05 13.4583C14.5916 13.05 15.0333 12.1666 15.0333 11.4916V4.74164C15.0416 3.79997 14.325 2.76664 13.45 2.4333ZM10.9 7.09997L7.31665 10.6833C7.19165 10.8083 7.03331 10.8666 6.87498 10.8666C6.71665 10.8666 6.55831 10.8083 6.43331 10.6833L5.09998 9.3333C4.85831 9.09164 4.85831 8.69164 5.09998 8.44997C5.34165 8.2083 5.74165 8.2083 5.98331 8.44997L6.88331 9.34997L10.025 6.2083C10.2666 5.96664 10.6666 5.96664 10.9083 6.2083C11.15 6.44997 11.15 6.8583 10.9 7.09997Z" fill="#002387"/>
</svg>
